# xmcd
# 
# Track frame offsets:
#     150
#     15475
#     39457
#     64220
#     85915
#     141887
#     151650
#     181402
#     201302
#     216587
#     237580
#     264900
# 
# Disc length: 3803
# 
# Revision: 1
# Processed by: cddbd v1.5.2PL0 Copyright (c) Steve Scherf et al.
# Submitted via: fre:ac v1.1beta1pre4
# 
DISCID=a80ed90c
DTITLE=田中公平 - サクラ大戦　太正歌謡カラオケ大全集　光録音盤三
DYEAR=2000
DGENRE=Game
TTITLE0=この世は楽し
TTITLE1=つばさ
TTITLE2=シンデレラ
TTITLE3=暁の戦士
TTITLE4=ドリーム／夢の1ポンド
TTITLE5=チャンバラブギ
TTITLE6=希望
TTITLE7=お祭りダンス
TTITLE8=甲板フラフラ
TTITLE9=私の青空
TTITLE10=奇跡の鐘〜So special a day〜
TTITLE11=Happy Day Happy X'mas
EXTD=
EXTT0=
EXTT1=
EXTT2=
EXTT3=
EXTT4=
EXTT5=
EXTT6=
EXTT7=
EXTT8=
EXTT9=
EXTT10=
EXTT11=
PLAYORDER=
